<?xml version="1.0" standalone="no"?>
<!DOCTYPE svg PUBLIC "-//W3C//DTD SVG 20010904//EN"
 "http://www.w3.org/TR/2001/REC-SVG-20010904/DTD/svg10.dtd">
<svg version="1.0" xmlns="http://www.w3.org/2000/svg"
 width="256.000000pt" height="256.000000pt" viewBox="0 0 256.000000 256.000000"
 preserveAspectRatio="xMidYMid meet">

<g transform="translate(0.000000,256.000000) scale(0.100000,-0.100000)"
fill="#000000" stroke="none">
<path d="M1130 2554 c-117 -22 -233 -50 -275 -66 -287 -112 -487 -270 -639
-503 -101 -154 -146 -260 -193 -455 -28 -119 -25 -382 6 -520 77 -337 265
-611 546 -794 154 -101 260 -146 455 -193 119 -28 382 -25 520 6 337 77 611
265 794 546 101 154 146 260 193 455 28 119 25 382 -6 520 -77 337 -265 611
-546 794 -153 100 -260 146 -450 191 -68 17 -348 29 -405 19z m193 -464 c34
-61 28 -51 187 -330 63 -111 123 -215 133 -232 10 -17 16 -32 14 -34 -2 -2
-173 -3 -380 -2 l-377 3 13 25 c8 14 25 45 39 70 114 199 224 391 241 420 11
19 28 49 37 65 29 53 45 75 53 72 5 -1 23 -27 40 -57z m542 -951 c44 -77 90
-157 103 -177 12 -20 28 -48 34 -62 7 -14 19 -36 28 -50 9 -14 29 -46 44 -72
l27 -48 -821 0 -821 0 13 22 c19 31 51 86 83 143 16 28 35 62 44 77 9 15 52
90 96 167 l80 141 505 0 505 0 80 -141z"/>
</g>
</svg>
